<svg width="88" height="31" viewBox="0 0 88 31" fill="none" xmlns="http://www.w3.org/2000/svg">
<rect width="88" height="31" rx="15.5" fill="#E7E0D4"/>
<path d="M28.781 19.104C28.5297 19.104 28.3347 19.0347 28.196 18.896C28.066 18.7573 28.001 18.558 28.001 18.298V10.563C28.001 10.2943 28.066 10.0907 28.196 9.952C28.3347 9.80467 28.5123 9.731 28.729 9.731C28.9283 9.731 29.0757 9.77 29.171 9.848C29.275 9.91733 29.3963 10.0387 29.535 10.212L34.514 16.673H34.176V10.524C34.176 10.2727 34.241 10.0777 34.371 9.939C34.5097 9.80033 34.7047 9.731 34.956 9.731C35.2073 9.731 35.398 9.80033 35.528 9.939C35.658 10.0777 35.723 10.2727 35.723 10.524V18.324C35.723 18.5667 35.6623 18.7573 35.541 18.896C35.4197 19.0347 35.255 19.104 35.047 19.104C34.8477 19.104 34.6873 19.065 34.566 18.987C34.4533 18.909 34.3277 18.7833 34.189 18.61L29.223 12.149H29.548V18.298C29.548 18.558 29.483 18.7573 29.353 18.896C29.223 19.0347 29.0323 19.104 28.781 19.104ZM40.7026 19.13C39.9833 19.13 39.3636 18.9957 38.8436 18.727C38.3236 18.4583 37.9206 18.077 37.6346 17.583C37.3573 17.089 37.2186 16.504 37.2186 15.828C37.2186 15.1693 37.3529 14.593 37.6216 14.099C37.8989 13.605 38.2759 13.2193 38.7526 12.942C39.2379 12.656 39.7883 12.513 40.4036 12.513C40.8543 12.513 41.2573 12.5867 41.6126 12.734C41.9766 12.8813 42.2843 13.0937 42.5356 13.371C42.7956 13.6483 42.9906 13.9863 43.1206 14.385C43.2593 14.775 43.3286 15.217 43.3286 15.711C43.3286 15.867 43.2723 15.9883 43.1596 16.075C43.0556 16.153 42.9039 16.192 42.7046 16.192H38.5316V15.256H42.1846L41.9766 15.451C41.9766 15.0523 41.9159 14.7187 41.7946 14.45C41.6819 14.1813 41.5129 13.9777 41.2876 13.839C41.0709 13.6917 40.7979 13.618 40.4686 13.618C40.1046 13.618 39.7926 13.7047 39.5326 13.878C39.2813 14.0427 39.0863 14.281 38.9476 14.593C38.8176 14.8963 38.7526 15.2603 38.7526 15.685V15.776C38.7526 16.4867 38.9173 17.0197 39.2466 17.375C39.5846 17.7217 40.0786 17.895 40.7286 17.895C40.9539 17.895 41.2053 17.869 41.4826 17.817C41.7686 17.7563 42.0373 17.6567 42.2886 17.518C42.4706 17.414 42.6309 17.3707 42.7696 17.388C42.9083 17.3967 43.0166 17.4443 43.0946 17.531C43.1813 17.6177 43.2333 17.726 43.2506 17.856C43.2679 17.9773 43.2419 18.103 43.1726 18.233C43.1119 18.363 43.0036 18.4757 42.8476 18.571C42.5443 18.7617 42.1933 18.9047 41.7946 19C41.4046 19.0867 41.0406 19.13 40.7026 19.13ZM46.9709 19.104C46.7543 19.104 46.5679 19.052 46.4119 18.948C46.2559 18.8353 46.1303 18.662 46.0349 18.428L44.1499 13.618C44.0719 13.41 44.0459 13.228 44.0719 13.072C44.1066 12.9073 44.1889 12.7773 44.3189 12.682C44.4489 12.5867 44.6223 12.539 44.8389 12.539C45.0296 12.539 45.1856 12.5867 45.3069 12.682C45.4283 12.7687 45.5323 12.9377 45.6189 13.189L47.1919 17.518H46.8929L48.5179 13.085C48.5873 12.8943 48.6783 12.7557 48.7909 12.669C48.9123 12.5823 49.0683 12.539 49.2589 12.539C49.4496 12.539 49.6056 12.5867 49.7269 12.682C49.8483 12.7687 49.9393 12.903 49.9999 13.085L51.5989 17.518H51.3259L52.9119 13.15C52.9986 12.916 53.1069 12.7557 53.2369 12.669C53.3756 12.5823 53.5273 12.539 53.6919 12.539C53.8999 12.539 54.0603 12.591 54.1729 12.695C54.2856 12.799 54.3506 12.9333 54.3679 13.098C54.3853 13.254 54.3549 13.4273 54.2769 13.618L52.4049 18.428C52.3183 18.6533 52.1926 18.8223 52.0279 18.935C51.8719 19.0477 51.6856 19.104 51.4689 19.104C51.2523 19.104 51.0616 19.0477 50.8969 18.935C50.7409 18.8223 50.6196 18.6533 50.5329 18.428L48.8299 13.917H49.5709L47.9069 18.415C47.8203 18.649 47.6989 18.8223 47.5429 18.935C47.3869 19.0477 47.1963 19.104 46.9709 19.104ZM62.0383 19.13C61.4749 19.13 61.0026 19.0347 60.6213 18.844C60.2486 18.6533 59.9713 18.376 59.7893 18.012C59.6073 17.6393 59.5163 17.18 59.5163 16.634V13.865H58.8403C58.6323 13.865 58.4719 13.813 58.3593 13.709C58.2466 13.5963 58.1902 13.4447 58.1902 13.254C58.1902 13.0547 58.2466 12.903 58.3593 12.799C58.4719 12.695 58.6323 12.643 58.8403 12.643H59.5163V11.46C59.5163 11.1913 59.5856 10.9877 59.7243 10.849C59.8716 10.7103 60.0753 10.641 60.3353 10.641C60.5953 10.641 60.7946 10.7103 60.9333 10.849C61.0719 10.9877 61.1413 11.1913 61.1413 11.46V12.643H62.5193C62.7273 12.643 62.8876 12.695 63.0003 12.799C63.1129 12.903 63.1693 13.0547 63.1693 13.254C63.1693 13.4447 63.1129 13.5963 63.0003 13.709C62.8876 13.813 62.7273 13.865 62.5193 13.865H61.1413V16.543C61.1413 16.959 61.2323 17.271 61.4143 17.479C61.5963 17.687 61.8909 17.791 62.2983 17.791C62.4456 17.791 62.5756 17.778 62.6883 17.752C62.8009 17.726 62.9006 17.7087 62.9873 17.7C63.0913 17.6913 63.1779 17.726 63.2473 17.804C63.3166 17.8733 63.3513 18.0207 63.3513 18.246C63.3513 18.4193 63.3209 18.5753 63.2603 18.714C63.2083 18.844 63.1086 18.935 62.9613 18.987C62.8486 19.0217 62.7013 19.052 62.5193 19.078C62.3373 19.1127 62.1769 19.13 62.0383 19.13ZM64.9475 19.104C64.6788 19.104 64.4708 19.0347 64.3235 18.896C64.1848 18.7487 64.1155 18.5407 64.1155 18.272V13.358C64.1155 13.0893 64.1848 12.8857 64.3235 12.747C64.4622 12.6083 64.6572 12.539 64.9085 12.539C65.1598 12.539 65.3548 12.6083 65.4935 12.747C65.6322 12.8857 65.7015 13.0893 65.7015 13.358V14.177H65.5715C65.6928 13.657 65.9312 13.2627 66.2865 12.994C66.6418 12.7253 67.1142 12.565 67.7035 12.513C67.8855 12.4957 68.0285 12.5433 68.1325 12.656C68.2452 12.76 68.3102 12.9247 68.3275 13.15C68.3448 13.3667 68.2928 13.5443 68.1715 13.683C68.0588 13.813 67.8855 13.891 67.6515 13.917L67.3655 13.943C66.8368 13.995 66.4382 14.1597 66.1695 14.437C65.9008 14.7057 65.7665 15.087 65.7665 15.581V18.272C65.7665 18.5407 65.6972 18.7487 65.5585 18.896C65.4198 19.0347 65.2162 19.104 64.9475 19.104ZM70.0123 19.091C69.7523 19.091 69.553 19.013 69.4143 18.857C69.2757 18.701 69.2063 18.4843 69.2063 18.207V13.436C69.2063 13.15 69.2757 12.9333 69.4143 12.786C69.553 12.63 69.7523 12.552 70.0123 12.552C70.2723 12.552 70.4717 12.63 70.6103 12.786C70.7577 12.9333 70.8313 13.15 70.8313 13.436V18.207C70.8313 18.4843 70.762 18.701 70.6233 18.857C70.4847 19.013 70.281 19.091 70.0123 19.091ZM70.0123 11.343C69.709 11.343 69.4707 11.2693 69.2973 11.122C69.1327 10.966 69.0503 10.7537 69.0503 10.485C69.0503 10.2077 69.1327 9.99533 69.2973 9.848C69.4707 9.70067 69.709 9.627 70.0123 9.627C70.3243 9.627 70.5627 9.70067 70.7273 9.848C70.892 9.99533 70.9743 10.2077 70.9743 10.485C70.9743 10.7537 70.892 10.966 70.7273 11.122C70.5627 11.2693 70.3243 11.343 70.0123 11.343ZM73.3258 21.444C73.0658 21.444 72.8665 21.3747 72.7278 21.236C72.5891 21.0973 72.5198 20.8937 72.5198 20.625V13.358C72.5198 13.0893 72.5891 12.8857 72.7278 12.747C72.8665 12.6083 73.0615 12.539 73.3128 12.539C73.5728 12.539 73.7721 12.6083 73.9108 12.747C74.0495 12.8857 74.1188 13.0893 74.1188 13.358V14.372L73.9758 13.982C74.1058 13.54 74.3701 13.1847 74.7688 12.916C75.1761 12.6473 75.6485 12.513 76.1858 12.513C76.7405 12.513 77.2258 12.6473 77.6418 12.916C78.0665 13.1847 78.3958 13.566 78.6298 14.06C78.8638 14.5453 78.9808 15.1303 78.9808 15.815C78.9808 16.491 78.8638 17.0803 78.6298 17.583C78.3958 18.077 78.0708 18.4583 77.6548 18.727C77.2388 18.9957 76.7491 19.13 76.1858 19.13C75.6571 19.13 75.1935 19 74.7948 18.74C74.3961 18.4713 74.1275 18.1247 73.9888 17.7H74.1448V20.625C74.1448 20.8937 74.0711 21.0973 73.9238 21.236C73.7851 21.3747 73.5858 21.444 73.3258 21.444ZM75.7308 17.895C76.0515 17.895 76.3331 17.817 76.5758 17.661C76.8185 17.505 77.0048 17.2753 77.1348 16.972C77.2735 16.66 77.3428 16.2743 77.3428 15.815C77.3428 15.1217 77.1955 14.606 76.9008 14.268C76.6061 13.9213 76.2161 13.748 75.7308 13.748C75.4101 13.748 75.1285 13.826 74.8858 13.982C74.6431 14.1293 74.4525 14.359 74.3138 14.671C74.1838 14.9743 74.1188 15.3557 74.1188 15.815C74.1188 16.4997 74.2661 17.0197 74.5608 17.375C74.8555 17.7217 75.2455 17.895 75.7308 17.895Z" fill="#55666B"/>
<path d="M16.5 10.75L16.5 20.25" stroke="#55666B" stroke-width="1.58333" stroke-linecap="round"/>
<path d="M21.25 15.5L11.75 15.5" stroke="#55666B" stroke-width="1.58333" stroke-linecap="round"/>
</svg>
